<?xml version="1.0" encoding="UTF-8" standalone="no"?>
<!-- Created with Inkscape (http://www.inkscape.org/) -->
<svg
   xmlns:dc="http://purl.org/dc/elements/1.1/"
   xmlns:cc="http://web.resource.org/cc/"
   xmlns:rdf="http://www.w3.org/1999/02/22-rdf-syntax-ns#"
   xmlns:svg="http://www.w3.org/2000/svg"
   xmlns="http://www.w3.org/2000/svg"
   xmlns:sodipodi="http://sodipodi.sourceforge.net/DTD/sodipodi-0.dtd"
   xmlns:inkscape="http://www.inkscape.org/namespaces/inkscape"
   width="212.59842"
   height="212.59845"
   id="svg18586"
   sodipodi:version="0.32"
   inkscape:version="0.45.1"
   version="1.0"
   sodipodi:docbase="D:\LOGOS\icons"
   sodipodi:docname="bus bar.svg"
   inkscape:output_extension="org.inkscape.output.svg.inkscape">
  <defs
     id="defs18588" />
  <sodipodi:namedview
     id="base"
     pagecolor="#ffffff"
     bordercolor="#666666"
     borderopacity="1.0"
     inkscape:pageopacity="0.0"
     inkscape:pageshadow="2"
     inkscape:zoom="0.35"
     inkscape:cx="350"
     inkscape:cy="405.71429"
     inkscape:document-units="px"
     inkscape:current-layer="layer1"
     width="6cm"
     height="6cm"
     units="cm"
     inkscape:window-width="1280"
     inkscape:window-height="998"
     inkscape:window-x="-4"
     inkscape:window-y="-4" />
  <metadata
     id="metadata18591">
    <rdf:RDF>
      <cc:Work
         rdf:about="">
        <dc:format>image/svg+xml</dc:format>
        <dc:type
           rdf:resource="http://purl.org/dc/dcmitype/StillImage" />
      </cc:Work>
    </rdf:RDF>
  </metadata>
  <g
     inkscape:label="Ebene 1"
     inkscape:groupmode="layer"
     id="layer1"
     transform="translate(17.727786,7.9865201)">
    <g
       id="g18842">
      <path
         transform="matrix(1.0193075,0,0,1.0193075,28.869125,19.944101)"
         d="M 162.85714 76.884163 A 104.28571 104.28571 0 1 1  -45.714283,76.884163 A 104.28571 104.28571 0 1 1  162.85714 76.884163 z"
         sodipodi:ry="104.28571"
         sodipodi:rx="104.28571"
         sodipodi:cy="76.884163"
         sodipodi:cx="58.57143"
         id="path18671"
         style="fill:#ffffff"
         sodipodi:type="arc" />
      <g
         transform="matrix(0.1863271,0,0,0.1863271,-1808.2008,-1562.7897)"
         id="g18437"
         style="fill-rule:evenodd">
        <symbol
           id="symbol18439">
 <path
   style="fill:#ffffff"
   class="fil0"
   d="M 13815.5,8478.08 C 14114.638,8478.08 14358.618,8722.064 14358.618,9021.202 C 14358.618,9320.336 14114.638,9564.32 13815.5,9564.32 C 13516.366,9564.32 13272.382,9320.336 13272.382,9021.202 C 13272.382,8722.064 13516.366,8478.08 13815.5,8478.08 z "
   id="path18422" />

 <path
   style="fill:#ff0000"
   class="fil1"
   d="M 13815.5,8450.7 C 14129.72,8450.7 14386,8706.98 14386,9021.2 C 14386,9335.417 14129.72,9591.696 13815.5,9591.696 C 13501.28,9591.696 13245,9335.416 13245,9021.2 C 13245,8706.98 13501.28,8450.7 13815.5,8450.7 z M 13801.992,9028.074 C 13820.067,9028.074 13836.772,9034.1016 13850.209,9044.2472 C 13837.972,9034.1488 13823.012,9027.0622 13806.283,9024.3141 C 13755.74,9016.0188 13707.752,9050.4676 13699.452,9101.011 C 13699.196,9102.5976 13698.98,9104.1842 13698.803,9105.7708 C 13650.633,9087.133 13620.169,9036.4558 13628.846,8983.5898 L 13658.972,8800.0898 L 13866.59,8822.4992 C 13870.775,8822.9481 13874.759,8818.2 13875.433,8811.9401 L 13875.433,8811.9401 C 13876.114,8805.6803 13873.228,8800.1881 13869.047,8799.7393 L 13662.685,8777.4676 L 13664.945,8763.6763 L 13872.658,8786.0936 C 13876.843,8786.5425 13880.827,8781.7944 13881.5,8775.5345 L 13881.5,8775.5345 C 13882.181,8769.2747 13879.295,8763.7825 13875.114,8763.3337 L 13668.661,8741.0502 L 13671.905,8721.2982 L 13878.724,8743.621 C 13882.909,8744.0699 13886.894,8739.3218 13887.567,8733.0619 L 13887.567,8733.0619 C 13888.248,8726.8021 13885.366,8721.3099 13881.181,8720.8611 L 13675.618,8698.6761 L 13678.705,8679.8572 L 13887.221,8702.3611 C 13891.402,8702.81 13895.39,8698.0619 13896.063,8691.802 L 13896.063,8691.802 C 13896.74,8685.5422 13893.859,8680.05 13889.677,8679.6012 L 13682.421,8657.2351 L 13685.854,8636.306 C 13711.063,8482.739 14028.98,8524.381 14002.082,8688.2115 L 13945.079,9035.4985 C 13939.039,9072.2741 13915.401,9101.9788 13884.205,9117.4198 C 13884.378,9105.7466 13882.323,9094.4001 13878.401,9083.8568 C 13880.878,9091.5694 13882.228,9099.7899 13882.228,9108.3096 C 13882.228,9145.6364 13856.519,9177.1403 13821.901,9186.0301 L 13821.901,9470.0021 C 13821.901,9487.4194 13810.327,9501.6675 13796.177,9501.6675 L 13760.559,9501.6675 C 13746.413,9501.6675 13734.838,9487.4195 13734.838,9470.0021 L 13734.838,9152.1161 C 13726.579,9139.5059 13721.756,9124.4547 13721.756,9108.309 C 13721.756,9064.1121 13757.795,9028.0728 13801.992,9028.0728 L 13801.992,9028.074 z "
   id="path18424" />

</symbol>
        <g
           id="g18443">
  <g
   id="g18427">
  </g>

  <path
   style="fill:#ff0000"
   class="fil1"
   d="M 10179.8,8344.48 C 10494.017,8344.48 10750.296,8600.763 10750.296,8914.98 C 10750.296,9229.197 10494.016,9485.48 10179.8,9485.48 C 9865.583,9485.48 9609.3,9229.197 9609.3,8914.98 C 9609.3,8600.763 9865.583,8344.48 10179.8,8344.48 z M 9925.343,8704.921 L 10049.78,8704.921 L 10049.78,8541.075 C 10049.78,8519.2522 10063.233,8501.4096 10079.646,8501.4096 L 10079.646,8501.4096 C 10096.118,8501.4096 10109.571,8519.2521 10109.571,8541.075 L 10109.571,8704.921 L 10256.059,8704.921 L 10256.059,8541.075 C 10256.059,8519.2522 10269.496,8501.4096 10285.941,8501.4096 L 10285.941,8501.4096 C 10302.37,8501.4096 10315.803,8519.2521 10315.803,8541.075 L 10315.803,8704.921 L 10434.268,8704.921 C 10451.442,8704.921 10465.304,8723.7753 10465.304,8746.8265 L 10465.304,8746.8265 C 10465.304,8769.8856 10451.442,8788.7438 10434.268,8788.7438 L 10398.056,8788.7438 L 10398.056,8959.4368 C 10398.056,9005.4604 10360.347,9043.1848 10314.335,9043.1848 L 10211.091,9043.1848 C 10210.705,9044.8108 10205.213,9043.8974 10204.772,9045.5667 C 10243.209,9076.4013 10207.127,9152.9647 10234.154,9178.8067 C 10257.343,9200.9012 10294.867,9220.539 10310.827,9237.6807 C 10402.493,9336.0075 10361.544,9352.7947 10274.93,9296.5153 C 10243.824,9276.2633 10228.674,9248.4208 10176.875,9209.1846 C 10138.595,9180.0901 10195.942,9087.4676 10146.068,9048.1216 C 10144.828,9047.1491 10136.725,9044.8106 10136.583,9043.1846 L 10045.304,9043.1846 C 9999.2763,9043.1846 9961.5677,9005.5035 9961.5677,8959.4366 L 9961.5677,8788.7436 L 9925.3433,8788.7436 C 9908.1858,8788.7436 9894.3079,8769.8853 9894.3079,8746.8263 L 9894.3079,8746.8263 C 9894.3079,8723.7751 9908.1859,8704.9208 9925.3433,8704.9208 L 9925.343,8704.921 z "
   id="path18429" />

  <g
   id="g18431">
  </g>

 </g>
      </g>
    </g>
  </g>
</svg>
